<svg width="31" height="30" viewBox="0 0 31 30" fill="none" xmlns="http://www.w3.org/2000/svg">
<path id="Vector" d="M15.125 0C6.80624 0 0 6.57421 0 14.6712C0 21.9921 5.53574 28.0685 12.7655 29.1667V18.9173H8.92374V14.6712H12.7655V11.4353C12.7655 7.76021 15.0191 5.73963 18.4827 5.73963C20.1314 5.73963 21.8556 6.01782 21.8556 6.01782V9.63437H19.9498C18.0744 9.63437 17.4845 10.7618 17.4845 11.9185V14.6712H21.6892L21.0086 18.9173H17.4845V29.1667C21.0486 28.6218 24.2941 26.8613 26.635 24.2032C28.9759 21.545 30.2581 18.1642 30.25 14.6712C30.25 6.57421 23.4437 0 15.125 0Z" fill="#FFFEFE"/>
</svg>
