<svg width="27" height="30" viewBox="0 0 27 30" fill="none" xmlns="http://www.w3.org/2000/svg">
<path id="Vector" d="M7.83 0H19.17C23.49 0 27 3.9 27 8.7V21.3C27 23.6074 26.1751 25.8203 24.7066 27.4518C23.2382 29.0834 21.2466 30 19.17 30H7.83C3.51 30 0 26.1 0 21.3V8.7C0 6.39262 0.824944 4.17974 2.29335 2.54817C3.76176 0.916605 5.75336 0 7.83 0ZM7.56 3C6.27105 3 5.03489 3.56893 4.12346 4.58162C3.21203 5.59432 2.7 6.96783 2.7 8.4V21.6C2.7 24.585 4.8735 27 7.56 27H19.44C20.729 27 21.9651 26.4311 22.8765 25.4184C23.788 24.4057 24.3 23.0322 24.3 21.6V8.4C24.3 5.415 22.1265 3 19.44 3H7.56ZM20.5875 5.25C21.0351 5.25 21.4643 5.44754 21.7807 5.79917C22.0972 6.15081 22.275 6.62772 22.275 7.125C22.275 7.62228 22.0972 8.09919 21.7807 8.45083C21.4643 8.80246 21.0351 9 20.5875 9C20.1399 9 19.7107 8.80246 19.3943 8.45083C19.0778 8.09919 18.9 7.62228 18.9 7.125C18.9 6.62772 19.0778 6.15081 19.3943 5.79917C19.7107 5.44754 20.1399 5.25 20.5875 5.25ZM13.5 7.5C15.2902 7.5 17.0071 8.29018 18.273 9.6967C19.5388 11.1032 20.25 13.0109 20.25 15C20.25 16.9891 19.5388 18.8968 18.273 20.3033C17.0071 21.7098 15.2902 22.5 13.5 22.5C11.7098 22.5 9.9929 21.7098 8.72703 20.3033C7.46116 18.8968 6.75 16.9891 6.75 15C6.75 13.0109 7.46116 11.1032 8.72703 9.6967C9.9929 8.29018 11.7098 7.5 13.5 7.5ZM13.5 10.5C12.4259 10.5 11.3957 10.9741 10.6362 11.818C9.87669 12.6619 9.45 13.8065 9.45 15C9.45 16.1935 9.87669 17.3381 10.6362 18.182C11.3957 19.0259 12.4259 19.5 13.5 19.5C14.5741 19.5 15.6043 19.0259 16.3638 18.182C17.1233 17.3381 17.55 16.1935 17.55 15C17.55 13.8065 17.1233 12.6619 16.3638 11.818C15.6043 10.9741 14.5741 10.5 13.5 10.5Z" fill="#FFFEFE"/>
</svg>
